<svg width="104" height="102" viewBox="0 0 104 102" fill="none" xmlns="http://www.w3.org/2000/svg">
<path fill-rule="evenodd" clip-rule="evenodd" d="M42 59.7268V102H0V75.7394C0 59.9403 1.48485 47.9042 4.45455 39.6311C7.42424 31.3579 12.0114 23.752 18.2159 16.8132C24.4205 9.87441 32.3485 4.27002 42 0V19.3752C36.9091 22.2575 33.0114 25.8603 30.3068 30.1837C27.6023 34.5071 25.5606 39.044 24.1818 43.7943C22.803 48.5447 22.1136 53.8556 22.1136 59.7268H42ZM104 59.7268V102H62V75.7394C62 59.9403 63.4848 47.9042 66.4545 39.6311C69.4242 31.3579 73.9848 23.752 80.1364 16.8132C86.2879 9.87441 94.2424 4.27002 104 0V19.3752C98.9091 22.2575 95.0114 25.8603 92.3068 30.1837C89.6023 34.5071 87.5606 39.044 86.1818 43.7943C84.803 48.5447 84.1136 53.8556 84.1136 59.7268H104Z" fill="url(#paint0_linear_0_98)"/>
<defs>
<linearGradient id="paint0_linear_0_98" x1="52" y1="0" x2="52" y2="113" gradientUnits="userSpaceOnUse">
<stop stop-color="white"/>
<stop offset="1" stop-color="#3BE2C4"/>
</linearGradient>
</defs>
</svg>
